
<svg xmlns="http://www.w3.org/2000/svg" xmlns:xlink="http://www.w3.org/1999/xlink">
	
	<svg id="options-dots" viewBox="0 0 21 21"  xmlns="http://www.w3.org/2000/svg">
		<circle cx="11" cy="4" r="2" stroke="none" fill="#aaaaaa" stroke-width="0" />
		<circle cx="11" cy="10" r="2" stroke="none" fill="#aaaaaa" stroke-width="0" />
		<circle cx="11" cy="16" r="2" stroke="none" fill="#aaaaaa" stroke-width="0" />
	</svg>

	<svg id="plus" viewBox="0 0 21 21" xmlns="http://www.w3.org/2000/svg">
		<line x1="2" x2="19" y1="11" y2="11" stroke="#aaaaaa" stroke-width="3" stroke-linejoin="round" />
		<line x1="11" x2="11" y1="2" y2="19" stroke="#aaaaaa" stroke-width="3" stroke-linejoin="round"/>
	</svg>

	<svg id="heart" class="label-icons" viewBox="0 0 21 21" xmlns="http://www.w3.org/2000/svg">
		<polygon points="10.3,5 8,3 6,2 4,2 2,3 1,5 0.5,6 0.5,7 1,10 3,13 6,16 8,17 10,18 11,18 13,17 15,16 18,13 20,10 20.5,7 20.5,6 20,5 19,3 17,2 15,2 13,3 10.7,5" />
	</svg>

</svg>

